<?xml version="1.0" encoding="UTF-8"?>
<svg version="1.1" xmlns="http://www.w3.org/2000/svg" width="512" height="512">
<path d="M0 0 C4.07371199 0.00914608 8.14735849 -0.00496601 12.22105694 -0.01591969 C20.17765482 -0.03360871 28.13410087 -0.02990815 36.09070444 -0.01826912 C42.56324498 -0.00919692 49.03574329 -0.00802708 55.50828838 -0.01236439 C56.8956167 -0.01328379 56.8956167 -0.01328379 58.31097186 -0.01422176 C60.19047309 -0.01550079 62.06997432 -0.01679765 63.94947553 -0.01811212 C81.53031666 -0.02948975 99.11107405 -0.0164486 116.69190145 0.00508934 C131.74277919 0.02295775 146.79353347 0.01985285 161.84440899 0.0014143 C179.36683906 -0.02004238 196.88919593 -0.02839137 214.41163731 -0.01613665 C216.28382014 -0.01486259 218.15600299 -0.0136051 220.02818584 -0.01236439 C220.9490843 -0.01174729 221.86998275 -0.01113018 222.81878722 -0.01049438 C229.27568975 -0.00705584 235.73254545 -0.01283737 242.18944073 -0.0222826 C250.06951944 -0.03355746 257.949439 -0.03034815 265.82949972 -0.00915962 C269.84197168 0.00127756 273.8541793 0.0055997 277.86664867 -0.00775623 C309.72328262 -0.10471402 337.99599089 4.32507475 361.76823711 27.52289867 C362.61386211 28.32727367 363.45948711 29.13164867 364.33073711 29.96039867 C365.53729961 31.22883617 365.53729961 31.22883617 366.76823711 32.52289867 C367.76597149 33.52836742 367.76597149 33.52836742 368.78386211 34.55414867 C391.33652473 58.18074761 394.3945222 87.69469143 394.29113579 118.75466156 C394.2819897 122.82837355 394.2961018 126.90202005 394.30705547 130.9757185 C394.3247445 138.93231638 394.32104394 146.88876243 394.30940491 154.845366 C394.30033271 161.31790654 394.29916287 167.79040485 394.30350018 174.26294994 C394.30411311 175.18783549 394.30472604 176.11272104 394.30535755 177.06563342 C394.30663658 178.94513465 394.30793344 180.82463588 394.30924791 182.70413709 C394.32062553 200.28497822 394.30758439 217.86573561 394.28604645 235.44656301 C394.26817804 250.49744075 394.27128294 265.54819503 394.28972149 280.59907055 C394.31117816 298.12150062 394.31952716 315.64385749 394.30727243 333.16629887 C394.30599838 335.0384817 394.30474089 336.91066455 394.30350018 338.7828474 C394.30288307 339.70374586 394.30226597 340.62464431 394.30163017 341.57344878 C394.29819163 348.03035131 394.30397316 354.48720701 394.31341839 360.94410229 C394.32469325 368.824181 394.32148393 376.70410056 394.30029541 384.58416128 C394.28985823 388.59663324 394.28553609 392.60884086 394.29889202 396.62131023 C394.3958498 428.47794418 389.96606104 456.75065245 366.76823711 480.52289867 C365.96386211 481.36852367 365.15948711 482.21414867 364.33073711 483.08539867 C363.48511211 483.88977367 362.63948711 484.69414867 361.76823711 485.52289867 C361.09792461 486.18805492 360.42761211 486.85321117 359.73698711 487.53852367 C336.11038818 510.09118629 306.59644436 513.14918376 275.53647423 513.04579735 C271.46276224 513.03665126 267.38911574 513.05076336 263.31541729 513.06171703 C255.35881941 513.07940606 247.40237336 513.0757055 239.44576979 513.06406647 C232.97322924 513.05499427 226.50073094 513.05382443 220.02818584 513.05816174 C218.64085753 513.05908113 218.64085753 513.05908113 217.22550237 513.06001911 C215.34600114 513.06129814 213.46649991 513.062595 211.5869987 513.06390947 C194.00615757 513.07528709 176.42540018 513.06224595 158.84457278 513.04070801 C143.79369504 513.0228396 128.74294075 513.0259445 113.69206524 513.04438305 C96.16963517 513.06583972 78.6472783 513.07418872 61.12483692 513.06193399 C59.25265409 513.06065994 57.38047124 513.05940245 55.50828838 513.05816174 C54.58738993 513.05754463 53.66649148 513.05692753 52.71768701 513.05629173 C46.26078448 513.05285319 39.80392878 513.05863472 33.3470335 513.06807995 C25.46695479 513.07935481 17.58703523 513.07614549 9.70697451 513.05495697 C5.69450255 513.04451979 1.68229493 513.04019765 -2.33017445 513.05355358 C-34.18680839 513.15051136 -62.45951666 508.7207226 -86.23176289 485.52289867 C-87.50020039 484.31633617 -87.50020039 484.31633617 -88.79426289 483.08539867 C-89.59863789 482.23977367 -90.40301289 481.39414867 -91.23176289 480.52289867 C-91.89691914 479.85258617 -92.56207539 479.18227367 -93.24738789 478.49164867 C-115.8000505 454.86504974 -118.85804797 425.35110592 -118.75466156 394.29113579 C-118.74551548 390.2174238 -118.75962757 386.1437773 -118.77058125 382.07007885 C-118.78827027 374.11348097 -118.78456971 366.15703492 -118.77293068 358.20043135 C-118.76385848 351.7278908 -118.76268864 345.2553925 -118.76702595 338.7828474 C-118.76763888 337.85796186 -118.76825181 336.93307631 -118.76888332 335.98016393 C-118.77016235 334.1006627 -118.77145921 332.22116147 -118.77277368 330.34166026 C-118.78415131 312.76081913 -118.77111016 295.18006174 -118.74957222 277.59923434 C-118.73170381 262.5483566 -118.73480871 247.49760231 -118.75324726 232.4467268 C-118.77470394 214.92429673 -118.78305293 197.40193986 -118.77079821 179.87949848 C-118.76952415 178.00731565 -118.76826666 176.1351328 -118.76702595 174.26294994 C-118.76640885 173.34205149 -118.76579174 172.42115304 -118.76515594 171.47234857 C-118.7617174 165.01544604 -118.76749893 158.55859034 -118.77694416 152.10169506 C-118.78821902 144.22161635 -118.78500971 136.34169679 -118.76382118 128.46163607 C-118.753384 124.44916411 -118.74906186 120.43695649 -118.76241779 116.42448711 C-118.85937558 84.56785317 -114.42958681 56.2951449 -91.23176289 32.52289867 C-90.42738789 31.67727367 -89.62301289 30.83164867 -88.79426289 29.96039867 C-87.94863789 29.15602367 -87.10301289 28.35164867 -86.23176289 27.52289867 C-85.56145039 26.85774242 -84.89113789 26.19258617 -84.20051289 25.50727367 C-60.57391395 2.95461106 -31.05997013 -0.10338641 0 0 Z " fill="#30C4AC" transform="translate(118.23176288604736,-0.5228986740112305)"/>
<path d="M0 0 C9.07152615 7.87088298 15.63656436 17.74639509 20.1875 28.8125 C20.80818359 30.2975 20.80818359 30.2975 21.44140625 31.8125 C26.27335178 46.08946796 24.1875 59.16888622 24.1875 74.8125 C53.5575 74.8125 82.9275 74.8125 113.1875 74.8125 C113.1875 64.5825 113.1875 54.3525 113.1875 43.8125 C116.54459911 25.41559688 125.14748621 9.59271853 140.0078125 -2.015625 C155.67651243 -12.71807851 173.34033014 -17.9077366 192.26953125 -14.53125 C210.32165645 -10.75299933 225.47562098 -1.43090747 236.1875 13.71875 C246.44424692 29.58465539 250.98645398 47.26460502 247.10473633 65.91748047 C242.66547765 84.60980939 232.35226208 99.3625528 216.1875 109.8125 C212.29528891 112.156197 208.38874473 114.0847381 204.1875 115.8125 C202.7025 116.43318359 202.7025 116.43318359 201.1875 117.06640625 C186.91053204 121.89835178 173.83111378 119.8125 158.1875 119.8125 C158.1875 149.1825 158.1875 178.5525 158.1875 208.8125 C168.0875 208.8125 177.9875 208.8125 188.1875 208.8125 C207.97603799 212.24801007 224.08393652 220.95727645 235.9296875 237.4609375 C246.20304038 252.39542796 250.72045828 269.95284667 247.52734375 287.88671875 C243.77111343 305.93658809 234.42975993 321.12290232 219.2734375 331.8125 C204.02307434 341.69627967 186.53392252 346.31978584 168.41015625 343.15234375 C147.58121328 338.1869301 132.60516024 327.07415476 121.4375 308.9765625 C111.74849069 291.2941205 113.1875 274.21130211 113.1875 253.8125 C83.8175 253.8125 54.4475 253.8125 24.1875 253.8125 C24.1875 263.7125 24.1875 273.6125 24.1875 283.8125 C20.74162039 303.66076655 11.95270635 320.04878394 -4.7265625 331.8125 C-19.97692566 341.69627967 -37.46607748 346.31978584 -55.58984375 343.15234375 C-76.41878672 338.1869301 -91.39483976 327.07415476 -102.5625 308.9765625 C-110.70433997 294.11770455 -113.17662011 276.72140641 -109.25 260.25 C-103.85125393 242.14052195 -93.63582116 227.04904066 -77.0078125 217.578125 C-75.65624968 216.85476703 -74.29946659 216.14107361 -72.9375 215.4375 C-72.32648438 215.11571777 -71.71546875 214.79393555 -71.0859375 214.46240234 C-54.88272894 206.54911015 -38.73741748 208.8125 -20.8125 208.8125 C-20.8125 179.4425 -20.8125 150.0725 -20.8125 119.8125 C-31.0425 119.8125 -41.2725 119.8125 -51.8125 119.8125 C-57.6441225 118.74833531 -61.60553557 118.00422351 -66.8125 115.8125 C-68.00230469 115.31492188 -69.19210938 114.81734375 -70.41796875 114.3046875 C-87.46856076 106.67966275 -100.06290774 93.25065629 -106.8125 75.8125 C-112.96472928 57.058808 -112.05102798 39.44828341 -103.5625 21.5 C-94.33575289 4.14120459 -79.84553107 -6.96623746 -61.4609375 -13.3515625 C-39.85129344 -19.08911067 -17.56304173 -13.46499866 0 0 Z " fill="#FDFEFE" transform="translate(186.8125,91.1875)"/>
<path d="M0 0 C29.37 0 58.74 0 89 0 C89 29.37 89 58.74 89 89 C59.63 89 30.26 89 0 89 C0 59.63 0 30.26 0 0 Z " fill="#30C4AC" transform="translate(211,211)"/>
<path d="M0 0 C5.11480153 3.51863071 8.29320937 7.68694295 10.265625 13.55859375 C10.49267578 16.6965332 10.49267578 16.6965332 10.4609375 20.171875 C10.45449219 21.41904297 10.44804687 22.66621094 10.44140625 23.95117188 C10.42464844 25.24474609 10.40789062 26.53832031 10.390625 27.87109375 C10.38160156 29.18400391 10.37257812 30.49691406 10.36328125 31.84960938 C10.33974297 35.08612288 10.3068602 38.32226524 10.265625 41.55859375 C5.76584616 41.67549448 1.26646213 41.74608212 -3.234375 41.80859375 C-5.13703125 41.85886719 -5.13703125 41.85886719 -7.078125 41.91015625 C-15.52428862 41.99813712 -21.09990758 41.46465765 -27.72265625 35.8828125 C-32.71598473 29.71111742 -35.37959788 24.10497783 -35.07421875 16.04296875 C-34.09122116 8.85691743 -30.18767519 4.41489886 -24.66796875 -0.03125 C-16.90377876 -5.69361886 -8.07260163 -4.48054776 0 0 Z " fill="#32C4AD" transform="translate(155.734375,124.44140625)"/>
<path d="M0 0 C1.24716797 0.00644531 2.49433594 0.01289063 3.77929688 0.01953125 C5.07287109 0.03628906 6.36644531 0.05304688 7.69921875 0.0703125 C9.01212891 0.07933594 10.32503906 0.08835937 11.67773438 0.09765625 C14.91424788 0.12119453 18.15039024 0.1540773 21.38671875 0.1953125 C21.53349546 4.48661175 21.62128461 8.77725474 21.69921875 13.0703125 C21.74111328 14.27429688 21.78300781 15.47828125 21.82617188 16.71875 C21.94257857 25.28628241 20.76742109 32.19194143 14.97827148 38.80395508 C9.39681004 43.86137053 3.26014888 45.80802088 -4.125 45.5390625 C-10.7567362 44.62290428 -15.3121098 41.2442646 -19.359375 36.0390625 C-23.47058654 29.99391656 -24.59168673 24.34779397 -23.61328125 17.1953125 C-21.71651233 10.56258595 -17.20138922 6.04559174 -11.61328125 2.1953125 C-7.61886257 0.25350791 -4.42037807 -0.04036875 0 0 Z " fill="#32C4AD" transform="translate(144.61328125,344.8046875)"/>
<path d="M0 0 C4.78650745 3.29278702 8.92629861 7.79949027 10.265625 13.55859375 C11.27924443 21.30653401 9.63339896 27.09888595 5.265625 33.55859375 C1.03072609 38.42174689 -4.44331987 41.3040585 -10.83105469 41.7980957 C-14.44913921 41.85347455 -18.05416293 41.82007947 -21.671875 41.74609375 C-22.92806641 41.73255859 -24.18425781 41.71902344 -25.47851562 41.70507812 C-28.56424779 41.66987966 -31.64908524 41.6206368 -34.734375 41.55859375 C-34.85127573 37.05881491 -34.92186337 32.55943088 -34.984375 28.05859375 C-35.01789063 26.79015625 -35.05140625 25.52171875 -35.0859375 24.21484375 C-35.17554561 15.61246549 -34.49694106 9.85225761 -28.76953125 3.31640625 C-19.50572297 -4.35145882 -10.90352752 -6.05180065 0 0 Z " fill="#32C4AD" transform="translate(379.734375,124.44140625)"/>
<path d="M0 0 C4.29129925 -0.14677671 8.58194224 -0.23456586 12.875 -0.3125 C14.07898438 -0.35439453 15.28296875 -0.39628906 16.5234375 -0.43945312 C25.29203931 -0.55859174 32.34726874 0.65964292 38.93457031 6.8046875 C43.86798559 12.14742545 45.54118602 17.05619099 45.37890625 24.3046875 C44.53508243 30.30714559 41.64971923 35.87498327 37.125 39.9375 C30.49877421 44.31080902 24.87602864 46.08805419 17 45 C9.50890545 42.7725595 5.15113083 37.71374473 1.34375 31.140625 C-1.00664833 25.43706246 -0.31120988 19.11159599 -0.1875 13.0625 C-0.17396484 11.80630859 -0.16042969 10.55011719 -0.14648438 9.25585938 C-0.11128591 6.17012721 -0.06204305 3.08528976 0 0 Z " fill="#32C4AD" transform="translate(345,345)"/>
</svg>
